<?xml version="1.0" encoding="utf-8"?>
<!-- Generator: Adobe Illustrator 18.1.1, SVG Export Plug-In . SVG Version: 6.00 Build 0)  -->
<svg version="1.1" id="Livello_1" xmlns="http://www.w3.org/2000/svg" xmlns:xlink="http://www.w3.org/1999/xlink" x="0px" y="0px"
	 viewBox="0 0 150 150" enable-background="new 0 0 150 150" xml:space="preserve">
<g>
	<rect fill="none" width="150" height="150"/>
	<g>
		<path fill="#FFFFFF" d="M38.653,66.341c0.932-3.91,2.473-7.585,4.529-10.914L30.701,42.946C25.778,49.738,22.375,57.699,21,66.341
			H38.653z"/>
		<path fill="#FFFFFF" d="M55.427,43.181c3.329-2.055,7.003-3.597,10.914-4.529V21c-8.642,1.375-16.603,4.778-23.394,9.701
			L55.427,43.181z"/>
		<path fill="#FFFFFF" d="M43.181,94.573c-2.055-3.329-3.597-7.004-4.529-10.914H21c1.375,8.642,4.778,16.603,9.701,23.395
			L43.181,94.573z"/>
		<path fill="#FFFFFF" d="M83.659,21v17.653c3.91,0.932,7.585,2.473,10.914,4.529l12.481-12.481
			C100.263,25.778,92.301,22.375,83.659,21z"/>
		<path fill="#FFFFFF" d="M111.347,83.659c-0.932,3.91-2.473,7.585-4.529,10.914l12.481,12.481
			c4.922-6.791,8.325-14.752,9.701-23.394H111.347z"/>
		<path fill="#FFFFFF" d="M106.819,55.427c2.055,3.329,3.597,7.003,4.528,10.913H129c-1.375-8.642-4.778-16.603-9.701-23.394
			L106.819,55.427z"/>
		<path fill="#FFFFFF" d="M94.573,106.819c-3.329,2.055-7.004,3.597-10.914,4.529V129c8.642-1.375,16.603-4.778,23.395-9.701
			L94.573,106.819z"/>
		<path fill="#FFFFFF" d="M66.341,111.347c-3.91-0.932-7.585-2.473-10.913-4.528l-12.481,12.481
			c6.791,4.922,14.752,8.325,23.394,9.701V111.347z"/>
	</g>
</g>
</svg>
