<?xml version="1.0" encoding="utf-8"?>
<!-- Generator: Adobe Illustrator 18.1.1, SVG Export Plug-In . SVG Version: 6.00 Build 0)  -->
<svg version="1.1" id="Livello_1" xmlns="http://www.w3.org/2000/svg" xmlns:xlink="http://www.w3.org/1999/xlink" x="0px" y="0px"
	 viewBox="0 0 150 150" enable-background="new 0 0 150 150" xml:space="preserve">
<g>
	<rect fill="none" width="150" height="150"/>
	<path fill="#FFFFFF" d="M124.161,94.919v-38.91C130.486,53.65,135,47.574,135,40.427c0-9.191-7.451-16.642-16.642-16.642
		c-9.14,0-16.553,7.37-16.635,16.491l-57.81,22.659c-3.043-3.328-7.406-5.428-12.271-5.428C22.451,57.507,15,64.958,15,74.149
		s7.451,16.642,16.642,16.642s16.642-7.451,16.642-16.642c0-0.153-0.019-0.301-0.023-0.453l57.417-22.505
		c1.825,2.147,4.187,3.814,6.876,4.816v38.91c-6.325,2.358-10.839,8.435-10.839,15.582c0,9.191,7.451,16.642,16.642,16.642
		S135,119.691,135,110.5C135,103.353,130.486,97.276,124.161,94.919z"/>
</g>
</svg>
