<?xml version="1.0" encoding="utf-8"?>
<!-- Generator: Adobe Illustrator 18.1.1, SVG Export Plug-In . SVG Version: 6.00 Build 0)  -->
<svg version="1.1" id="Livello_1" xmlns="http://www.w3.org/2000/svg" xmlns:xlink="http://www.w3.org/1999/xlink" x="0px" y="0px"
	 viewBox="0 0 150 150" enable-background="new 0 0 150 150" xml:space="preserve">
<path fill="#FFFFFF" d="M0,0v150h150V0H0z M83.659,21c8.642,1.375,16.603,4.778,23.395,9.701L94.573,43.182
	c-3.329-2.055-7.004-3.597-10.914-4.529V21z M30.701,42.946l12.481,12.481c-2.055,3.329-3.597,7.004-4.529,10.914H21
	C22.375,57.699,25.778,49.737,30.701,42.946z M21,83.659h17.653c0.932,3.91,2.473,7.585,4.529,10.914l-12.481,12.481
	C25.778,100.263,22.375,92.301,21,83.659z M66.341,129c-8.642-1.375-16.603-4.778-23.394-9.701l12.481-12.481
	c3.329,2.055,7.003,3.597,10.913,4.528V129z M66.341,38.653c-3.91,0.932-7.585,2.473-10.914,4.529L42.947,30.701
	c6.791-4.922,14.753-8.326,23.394-9.701V38.653z M83.659,129v-17.653c3.91-0.932,7.585-2.474,10.914-4.529l12.481,12.481
	C100.263,124.222,92.301,127.625,83.659,129z M119.299,107.053l-12.481-12.481c2.055-3.329,3.597-7.004,4.529-10.914H129
	C127.625,92.301,124.222,100.262,119.299,107.053z M111.347,66.341c-0.932-3.91-2.473-7.585-4.528-10.913l12.481-12.481
	c4.922,6.791,8.325,14.752,9.701,23.394H111.347z"/>
</svg>
