<?xml version="1.0" encoding="utf-8"?>
<!-- Generator: Adobe Illustrator 18.1.1, SVG Export Plug-In . SVG Version: 6.00 Build 0)  -->
<svg version="1.1" id="Livello_1" xmlns="http://www.w3.org/2000/svg" xmlns:xlink="http://www.w3.org/1999/xlink" x="0px" y="0px"
	 viewBox="0 0 150 150" enable-background="new 0 0 150 150" xml:space="preserve">
<g>
	<rect fill="none" width="150" height="150"/>
	<path fill="#FFFFFF" d="M69.6,107.4h10.8V96.6H69.6V107.4z M75,21c-29.808,0-54,24.192-54,54s24.192,54,54,54s54-24.192,54-54
		S104.808,21,75,21z M75,118.2c-23.814,0-43.2-19.386-43.2-43.2S51.186,31.8,75,31.8s43.2,19.386,43.2,43.2S98.814,118.2,75,118.2z
		 M75,42.6c-11.934,0-21.6,9.666-21.6,21.6h10.8c0-5.94,4.86-10.8,10.8-10.8s10.8,4.86,10.8,10.8c0,10.8-16.2,9.45-16.2,27h10.8
		c0-12.15,16.2-13.5,16.2-27C96.6,52.266,86.934,42.6,75,42.6z"/>
</g>
</svg>
