<?xml version="1.0" encoding="utf-8"?>
<!-- Generator: Adobe Illustrator 18.1.1, SVG Export Plug-In . SVG Version: 6.00 Build 0)  -->
<svg version="1.1" id="Livello_1" xmlns="http://www.w3.org/2000/svg" xmlns:xlink="http://www.w3.org/1999/xlink" x="0px" y="0px"
	 viewBox="0 0 150 150" enable-background="new 0 0 150 150" xml:space="preserve">
<path fill="#FFFFFF" d="M0,0v150h150V0H0z M135,110.5c0,9.191-7.451,16.642-16.642,16.642c-9.191,0-16.642-7.451-16.642-16.642
	c0-7.147,4.514-13.224,10.839-15.582v-38.91c-2.69-1.002-5.051-2.669-6.876-4.817L48.262,73.697c0.004,0.152,0.023,0.3,0.023,0.453
	c0,9.191-7.451,16.642-16.642,16.642C22.451,90.792,15,83.341,15,74.149c0-9.191,7.451-16.642,16.642-16.642
	c4.865,0,9.228,2.1,12.271,5.428l57.81-22.659c0.082-9.121,7.494-16.491,16.635-16.491c9.191,0,16.642,7.451,16.642,16.642
	c0,7.147-4.514,13.224-10.839,15.581v38.91C130.486,97.276,135,103.353,135,110.5z"/>
</svg>
